<svg width="1em" height="1em" viewBox="0 0 20 20" fill="none" xmlns="http://www.w3.org/2000/svg" class="c-icon">
	<path fill-rule="evenodd" clip-rule="evenodd" d="M0 1C0 0.447715 0.447715 0 1 0H2.19158C3.13466 0 3.94959 0.6588 4.14719 1.58094L4.45127 3H17.6708C19.0016 3 19.9613 4.27559 19.5924 5.55432L17.8616 11.5543L16.9008 11.2772L17.8616 11.5543C17.6147 12.4105 16.8311 13 15.94 13H6.59413L6.80842 14H15C16.6569 14 18 15.3431 18 17C18 18.6569 16.6569 20 15 20C13.3431 20 12 18.6569 12 17C12 16.6494 12.0602 16.3128 12.1707 16H8.82929C8.93985 16.3128 9 16.6494 9 17C9 18.6569 7.65685 20 6 20C4.34315 20 3 18.6569 3 17C3 15.764 3.7475 14.7025 4.8151 14.2431L2.19158 2H1C0.447715 2 0 1.55228 0 1ZM6.16556 11H15.94L17.6708 5H4.87984L6.16556 11ZM14 17C14 16.4477 14.4477 16 15 16C15.5523 16 16 16.4477 16 17C16 17.5523 15.5523 18 15 18C14.4477 18 14 17.5523 14 17ZM5 17C5 16.4477 5.44772 16 6 16C6.55229 16 7 16.4477 7 17C7 17.5523 6.55229 18 6 18C5.44772 18 5 17.5523 5 17Z" fill="white"></path>
</svg>